<?xml version="1.0" encoding="UTF-8"?>
<svg id="Layer_2" data-name="Layer 2" xmlns="http://www.w3.org/2000/svg" viewBox="0 0 334.62 480.46">
  <defs>
    <style>
      .cls-1 {
        fill-rule: evenodd;
      }
    </style>
  </defs>
  <g id="Layer_1-2" data-name="Layer 1">
    <path class="cls-1" d="M63.31,0v107.81c0,94.69,103.39,145.4,103.39,145.4,0,0,103.78-50.72,103.78-145.4V0H63.31ZM120.06,68.76h18.61l.02,75.43h-18.66l.02-75.43ZM176.06,48.12v119.18c0,15.44-12.52,23.45-27.96,23.45s-28.06-6.75-28.06-19.87h.02c0-5.14,4.18-9.32,9.32-9.32s9.33,4.18,9.33,9.32h0c0,9.53.76,15.99,9.4,15.99,9.29,0,9.29-6.49,9.29-19.57V48.12c0-15.44,12.52-23.45,27.96-23.45s28.06,6.74,28.06,19.86h-.02c0,5.15-4.17,9.32-9.32,9.32s-9.31-4.17-9.31-9.32h-.01c0-9.52-.76-15.98-9.4-15.98-9.29,0-9.29,6.48-9.29,19.57ZM222.04,81.76h-8.63v62.47h-18.67v-62.47h-8.61v-13h35.9v13Z"/>
    <g>
      <path d="M35.98,398.06v25.44c0,5.79-3.35,10.46-12.53,10.46s-12.53-4.67-12.53-10.46v-25.44h4.57v25.17c0,4.35,2.39,6.64,7.97,6.64s7.97-2.28,7.97-6.64v-25.17h4.57Z"/>
      <path d="M48.2,403.32v30.11h-4.35v-35.37h6.27l15.4,30.27v-30.27h4.35v35.37h-6.27l-15.4-30.11Z"/>
      <path d="M83.62,433.43h-4.57v-35.37h4.57v35.37Z"/>
      <path d="M89.83,398.06h4.41l10.36,31.39,10.36-31.39h4.41l-11.68,35.37h-6.16l-11.68-35.37Z"/>
      <path d="M124.44,398.06h20.82v4.09h-16.25v11.1h15.08v4.09h-15.08v12h16.3v4.09h-20.87v-35.37Z"/>
      <path d="M164.48,420.63h-8.66v12.8h-4.57v-35.37h13.49c7.59,0,10.25,3.29,10.25,8.71v5.1c0,4.2-1.54,7.06-5.63,8.23l9.19,13.33h-5.26l-8.82-12.8ZM164.59,402.15h-8.76v14.44h8.76c4.35,0,5.84-1.22,5.84-4.67v-5.1c0-3.51-1.49-4.67-5.84-4.67Z"/>
      <path d="M191.2,433.96c-3.4,0-7.49-.64-10.51-1.86l.74-3.72c3.24,1.01,6.64,1.54,9.88,1.54,5.68,0,6.85-1.49,6.85-5.52,0-4.78-.05-5.2-7.33-6.85-8.55-1.91-9.56-3.56-9.56-10.89,0-6.16,2.55-9.13,11.31-9.13,3.08,0,6.74.42,9.56,1.17l-.37,3.88c-2.81-.64-6.16-1.01-9.08-1.01-5.79,0-6.85,1.17-6.85,5.26,0,4.89,0,5.1,7.01,6.85,9.4,2.34,9.88,3.72,9.88,10.62,0,6.16-1.81,9.67-11.52,9.67Z"/>
      <path d="M213.58,433.43h-4.57v-35.37h4.57v35.37Z"/>
      <path d="M233.09,398.06c8.66,0,11.36,4.51,11.36,10.14v15.08c0,5.63-2.71,10.14-11.36,10.14h-12.37v-35.37h12.37ZM225.28,429.34h7.65c5.36,0,6.96-2.23,6.96-6.37v-14.44c0-4.14-1.59-6.37-6.96-6.37h-7.65v27.19Z"/>
      <path d="M277.85,433.43h-4.62l-2.92-8.5h-15.03l-2.87,8.5h-4.62l11.95-35.37h6.16l11.95,35.37ZM262.82,401.35l-6.32,19.6h12.64l-6.32-19.6Z"/>
      <path d="M294.37,398.06c8.66,0,11.36,4.51,11.36,10.14v15.08c0,5.63-2.71,10.14-11.36,10.14h-12.37v-35.37h12.37ZM286.56,429.34h7.65c5.36,0,6.96-2.23,6.96-6.37v-14.44c0-4.14-1.59-6.37-6.96-6.37h-7.65v27.19Z"/>
      <path d="M312.14,398.06h20.82v4.09h-16.25v11.1h15.08v4.09h-15.08v12h16.3v4.09h-20.87v-35.37Z"/>
      <path d="M79,444.56c8.66,0,11.36,4.51,11.36,10.14v15.08c0,5.63-2.71,10.14-11.36,10.14h-12.37v-35.37h12.37ZM71.2,475.84h7.65c5.36,0,6.96-2.23,6.96-6.37v-14.44c0-4.14-1.59-6.37-6.96-6.37h-7.65v27.19Z"/>
      <path d="M95.52,444.56h20.82v4.09h-16.25v11.1h15.08v4.09h-15.08v12h16.3v4.09h-20.87v-35.37Z"/>
      <path d="M136.46,475.84h15.35v4.09h-19.91v-35.37h4.57v31.28Z"/>
      <path d="M160.95,479.93h-4.57v-35.37h4.57v35.37Z"/>
      <path d="M176.19,480.46c-3.4,0-7.49-.64-10.51-1.86l.74-3.72c3.24,1.01,6.64,1.54,9.88,1.54,5.68,0,6.85-1.49,6.85-5.52,0-4.78-.05-5.2-7.33-6.85-8.55-1.91-9.56-3.56-9.56-10.89,0-6.16,2.55-9.13,11.31-9.13,3.08,0,6.74.42,9.56,1.17l-.37,3.88c-2.81-.64-6.16-1.01-9.08-1.01-5.79,0-6.85,1.17-6.85,5.26,0,4.89,0,5.1,7.01,6.85,9.4,2.34,9.88,3.72,9.88,10.62,0,6.16-1.81,9.67-11.52,9.67Z"/>
      <path d="M192.65,479.93v-35.37h13.65c5.58,0,8.34,2.5,8.34,7.17v4.09c0,2.71-.9,4.73-4.04,5.89,3.08.53,5.2,2.6,5.2,6.37v4.25c0,4.94-3.45,7.59-8.76,7.59h-14.39ZM210.07,451.84c0-2.28-1.27-3.35-4.04-3.35h-8.82v11.47h8.07c3.45,0,4.78-1.59,4.78-4.14v-3.98ZM211.24,468.25c0-2.81-1.59-4.35-5.1-4.35h-8.92v12.11h9.19c3.24,0,4.83-1.38,4.83-4.04v-3.72Z"/>
      <path d="M246.82,469.74c0,5.89-3.66,10.73-12.8,10.73s-12.8-4.83-12.8-10.73v-14.98c0-5.89,3.66-10.73,12.8-10.73s12.8,4.83,12.8,10.73v14.98ZM225.79,469.63c0,4.35,2.66,6.8,8.23,6.8s8.23-2.44,8.23-6.8v-14.76c0-4.35-2.66-6.8-8.23-6.8s-8.23,2.44-8.23,6.8v14.76Z"/>
      <path d="M279.37,479.93h-4.62l-2.92-8.5h-15.03l-2.87,8.5h-4.62l11.95-35.37h6.16l11.95,35.37ZM264.34,447.86l-6.32,19.6h12.64l-6.32-19.6Z"/>
    </g>
    <g>
      <g>
        <path d="M17.6,324.29H0v-10.5h47.12v10.5h-17.6v52.51h-11.92v-52.51Z"/>
        <path d="M54.7,313.78h38.6v10.5h-26.68v15.23h24.6v10.5h-24.6v16.27h26.68v10.5h-38.6v-63.02Z"/>
        <path d="M101.83,331.1c0-11.55,6.72-18.26,22.42-18.26,5.87,0,11.92.76,17.13,2.08l-1.32,10.31c-5.11-.94-11.07-1.61-15.42-1.61-8.23,0-10.88,2.84-10.88,9.56v24.22c0,6.72,2.65,9.56,10.88,9.56,4.35,0,10.31-.66,15.42-1.61l1.32,10.31c-5.2,1.32-11.26,2.08-17.13,2.08-15.71,0-22.42-6.72-22.42-18.26v-28.39Z"/>
        <path d="M163.41,329.01v47.78h-11.64v-63.02h15.9l23.94,47.88v-47.88h11.64v63.02h-15.9l-23.94-47.78Z"/>
        <path d="M227.84,376.8h-11.92v-63.02h11.92v63.02Z"/>
        <path d="M239.64,331.1c0-11.55,6.72-18.26,22.42-18.26,5.87,0,11.92.76,17.13,2.08l-1.32,10.31c-5.11-.94-11.07-1.61-15.42-1.61-8.23,0-10.88,2.84-10.88,9.56v24.22c0,6.72,2.65,9.56,10.88,9.56,4.35,0,10.31-.66,15.42-1.61l1.32,10.31c-5.2,1.32-11.26,2.08-17.13,2.08-15.71,0-22.42-6.72-22.42-18.26v-28.39Z"/>
        <path d="M334.62,358.35c0,10.5-6.06,19.4-23.84,19.4s-23.84-8.89-23.84-19.4v-26.11c0-10.5,6.06-19.4,23.84-19.4s23.84,8.89,23.84,19.4v26.11ZM298.85,357.68c0,5.96,3.03,9.56,11.92,9.56s11.92-3.59,11.92-9.56v-24.79c0-5.96-3.03-9.56-11.92-9.56s-11.92,3.6-11.92,9.56v24.79Z"/>
      </g>
      <path d="M67.6,303.69c4.4-2.72,8.71-5.43,12.46-8.34l4.4,6.93c-4.22,3.09-7.68,5.15-12.74,7.78l-4.12-6.37Z"/>
    </g>
  </g>
</svg>
